<svg width="1440" height="1963" viewBox="0 0 1440 1963" fill="none" xmlns="http://www.w3.org/2000/svg">
<g clip-path="url(#clip0_175_173)">
<rect width="1440" height="1963" fill="#0F1013" fill-opacity="0.85"/>
<g clip-path="url(#clip1_175_173)">
<g opacity="0.42">
<path opacity="0.42" d="M769.754 1250.42C721.475 1223.36 674.959 1191.22 630.663 1154.32C592.125 1122.2 552.757 1081.7 541.93 1023.68C537.274 998.707 538.316 972.034 531.413 947.956C515.701 893.1 464.366 868.065 445.48 814.933C438.968 796.768 435.842 774.519 422.947 763.714C414.464 756.589 403.8 756.312 393.82 754.249C375.438 750.441 358.164 739.913 339.799 735.829C303.638 727.81 264.644 747.464 241.965 785.154C219.285 822.845 213.896 876.978 228.402 921.007C231.089 929.132 234.426 937.129 235.143 945.935C236.592 963.59 227.002 979.776 216.191 990.369C191.769 1014.17 159.679 1019.53 129.201 1020.15C113.978 1020.49 98.4453 1019.79 84.0852 1013.13C62.3823 1003.07 45.6126 980.542 25.9937 964.759C5.51598 948.362 -17.9346 939.383 -41.948 938.746C-48.6396 938.576 -55.5917 939.15 -61.4855 943.149C-67.3793 947.148 -72.1334 954.592 -76.0246 962.058C-116.207 1039.12 -104.989 1154.21 -51.4399 1215.66C-43.4458 1224.81 -34.2632 1233.66 -30.893 1246.82C-29.0369 1254.12 -29.2649 1261.99 -29.3951 1269.67C-31.859 1364.25 -37.4652 1458.59 -46.2137 1552.69C-47.9395 1571.17 -49.5839 1590.97 -42.7295 1607.42C-38.8002 1616.22 -33.1908 1623.55 -26.4482 1628.69C-4.19174 1646.53 24.2516 1645.7 49.5038 1636.96C74.7561 1628.22 98.1848 1612.29 122.867 1601.12C182.001 1574.38 249.372 1574.23 300.951 1527.95C330.095 1501.81 351.179 1463.37 376.089 1430.62C384.735 1419.26 394.129 1408.33 405.51 1402.39C416.89 1396.46 429.769 1395.86 442.191 1395.67C480.181 1395.15 518.122 1396.85 556.014 1400.78C572.458 1402.48 589.634 1405.03 603.408 1416.86C629.947 1439.83 634.066 1487.49 648.361 1524.65C672.327 1586.93 732.616 1620.82 783.707 1600.72" stroke="#828282" stroke-miterlimit="10"/>
<path opacity="0.42" d="M379.574 897.099C349.307 903.905 326.367 935.896 307.936 968.077C289.506 1000.26 272.362 1035.67 245.612 1055.29C214.303 1078.34 176.188 1075.49 140.272 1077.24C104.355 1078.98 64.4174 1089.15 43.8216 1127.62C30.2756 1152.92 28.0288 1185.33 26.2053 1216.11C22.1676 1284.58 18.1244 1353.06 14.0758 1421.54C13.164 1436.96 12.3011 1452.76 15.6062 1467.59C18.9113 1482.41 27.3776 1496.3 38.9698 1499.49C50.8877 1502.7 62.6265 1494.24 73.0628 1486.09L185.582 1398.46C219.334 1372.1 254.045 1345.28 292.746 1336.18C321.531 1329.39 352.042 1332.54 379.036 1317.86C387.779 1313.1 396.18 1306.49 405.591 1305.1C415.002 1303.72 424.38 1308.02 433.676 1310.68C455.6 1316.93 478.444 1314.71 499.42 1304.29C511.37 1298.32 523.402 1289.53 536.118 1291.53C547.401 1293.32 556.762 1303.27 566.727 1310.42C583.425 1322.26 602.658 1326.54 621.415 1322.59C624.199 1321.99 627.163 1321.06 629.035 1318.33C632.291 1313.59 630.663 1306.17 628.481 1300.51C613.096 1260.88 578.01 1241.42 557.023 1206.47C534.994 1169.87 529.654 1118.41 504.125 1085.91C494.356 1073.47 481.966 1064.35 474.037 1049.75C468.046 1038.8 465.066 1025.63 461.599 1012.96C449.502 968.801 425.259 886.826 379.574 897.099Z" stroke="#828282" stroke-miterlimit="10"/>
<path opacity="0.42" d="M203.02 1143.83C166.68 1178.33 138.318 1225.34 114.14 1274.77C101.229 1301.15 88.9208 1331.67 93.9191 1362.28C126.156 1379.63 163.359 1364.13 193.495 1341.22C223.632 1318.31 250.805 1288.04 283.563 1272.39C332.667 1248.99 388.593 1261.75 437.535 1237.76C443.022 1235.06 448.525 1231.83 452.693 1226.45C459.205 1217.94 461.615 1205.32 462.071 1193.26C463.699 1149.58 442.891 1106.8 413.064 1086.91C379.867 1064.84 347.825 1075 314.4 1087.91C274.332 1103.42 237.927 1110.69 203.02 1143.83Z" stroke="#828282" stroke-miterlimit="10"/>
<path opacity="0.42" d="M666.677 1401.35C666.677 1413.52 666.677 1425.81 668.598 1437.74C673.353 1466.95 689.455 1491.17 708.195 1508.28C717.621 1516.78 731.086 1523.76 739.845 1514.04C745.283 1508 746.553 1497.79 746.748 1488.52C747.156 1469.99 744.827 1451.57 742.499 1433.21L731.656 1348.13C727.878 1318.5 713.746 1264.01 681.298 1281.09C654.515 1295.21 666.71 1370.66 666.677 1401.35Z" stroke="#828282" stroke-miterlimit="10"/>
</g>
</g>
<g clip-path="url(#clip2_175_173)">
<rect width="714" height="779" transform="translate(905 746)" fill="#2C2C2C" fill-opacity="0.01"/>
<g opacity="0.4">
<path opacity="0.4" d="M1604.11 859.425C1534.88 834.027 1481.34 782.259 1411.37 758.531C1353.35 738.8 1281.2 742.263 1236.14 779.831C1199.36 810.497 1187.09 856.759 1176.54 900.231C1165.14 947.314 1153.71 994.402 1142.26 1041.49C1139.15 1054.3 1135.9 1067.4 1127.85 1078.43C1117.87 1092.03 1101.78 1101.02 1086.34 1109.87C1036 1138.74 987.17 1171.35 952.093 1214.12C917.016 1256.9 896.99 1311.38 909.333 1362.87C914.92 1386.04 926.765 1407.71 940.491 1428.14C950.411 1442.62 961.813 1457.19 978.917 1465.07C993.17 1471.63 1009.62 1472.83 1025.64 1473.61C1093.87 1476.79 1162.29 1474.62 1230.07 1467.1C1273.22 1462.37 1317.89 1455.71 1359.45 1466.86C1381.5 1472.78 1401.64 1483.51 1423.96 1488.57C1437.94 1491.73 1452.89 1492.71 1465.41 1499C1476.41 1504.55 1484.55 1513.76 1495.67 1519.15C1513.06 1527.55 1535.21 1525.06 1552.87 1517.09C1570.52 1509.12 1584.65 1496.38 1598.48 1483.87" stroke="white" stroke-miterlimit="10"/>
<path opacity="0.4" d="M1611.76 981.531C1544.47 946.116 1469.32 923.613 1391.32 915.514C1377.07 914.044 1361.73 913.197 1348.92 918.964C1340.36 922.826 1333.68 929.315 1327.54 935.867C1281.33 985.554 1254.42 1046.46 1228.23 1106.27C1134.16 1151.39 1068.37 1238.65 1057.94 1331.96C1057.11 1339.27 1056.68 1346.9 1060.1 1353.68C1067.33 1367.89 1087.83 1371.89 1105.44 1374.11C1178.32 1383.21 1253.18 1392.27 1324.94 1377.84C1359.91 1370.81 1393.37 1358.35 1428.88 1354.35C1436.29 1353.52 1444.23 1353.11 1450.8 1356.26C1458.34 1359.82 1462.34 1367.07 1467.45 1373.09C1485.28 1394.09 1519.68 1400.74 1548.49 1393.64C1577.3 1386.54 1600.8 1367.97 1618.42 1346.84" stroke="white" stroke-miterlimit="10"/>
<path opacity="0.4" d="M1618 1095.59C1560.05 1092.02 1501.9 1091.8 1443.91 1094.96C1419.68 1096.28 1395.1 1098.23 1372.12 1105.21C1337.73 1115.65 1308.65 1136.88 1285.82 1161.65C1263.11 1186.28 1246 1214.48 1235.39 1244.73C1232.77 1252.2 1230.63 1260.55 1234.48 1267.58C1241.13 1279.78 1260.42 1280.53 1275.81 1278.96C1326.03 1273.77 1375.25 1262.82 1422.19 1246.4C1450.97 1236.33 1482.21 1223.98 1511.69 1232.36C1518.81 1234.38 1525.51 1237.55 1532.87 1238.7C1553.29 1241.89 1571.99 1229.01 1587.53 1216.99C1596.86 1209.76 1606.84 1201.43 1607.84 1190.58" stroke="white" stroke-miterlimit="10"/>
</g>
<g opacity="0.4">
<path opacity="0.4" d="M1604.11 859.425C1534.88 834.027 1481.34 782.259 1411.37 758.531C1353.35 738.8 1281.2 742.263 1236.14 779.831C1199.36 810.497 1187.09 856.759 1176.54 900.231C1165.14 947.314 1153.71 994.402 1142.26 1041.49C1139.15 1054.3 1135.9 1067.4 1127.85 1078.43C1117.87 1092.03 1101.78 1101.02 1086.34 1109.87C1036 1138.74 987.17 1171.35 952.093 1214.12C917.016 1256.9 896.99 1311.38 909.333 1362.87C914.92 1386.04 926.765 1407.71 940.491 1428.14C950.411 1442.62 961.813 1457.19 978.917 1465.07C993.17 1471.63 1009.62 1472.83 1025.64 1473.61C1093.87 1476.79 1162.29 1474.62 1230.07 1467.1C1273.22 1462.37 1317.89 1455.71 1359.45 1466.86C1381.5 1472.78 1401.64 1483.51 1423.96 1488.57C1437.94 1491.73 1452.89 1492.71 1465.41 1499C1476.41 1504.55 1484.55 1513.76 1495.67 1519.15C1513.06 1527.55 1535.21 1525.06 1552.87 1517.09C1570.52 1509.12 1584.65 1496.38 1598.48 1483.87" stroke="black" stroke-miterlimit="10"/>
<path opacity="0.4" d="M1611.76 981.531C1544.47 946.116 1469.32 923.613 1391.32 915.514C1377.07 914.044 1361.73 913.197 1348.92 918.964C1340.36 922.826 1333.68 929.315 1327.54 935.867C1281.33 985.554 1254.42 1046.46 1228.23 1106.27C1134.16 1151.39 1068.37 1238.65 1057.94 1331.96C1057.11 1339.27 1056.68 1346.9 1060.1 1353.68C1067.33 1367.89 1087.83 1371.89 1105.44 1374.11C1178.32 1383.21 1253.18 1392.27 1324.94 1377.84C1359.91 1370.81 1393.37 1358.35 1428.88 1354.35C1436.29 1353.52 1444.23 1353.11 1450.8 1356.26C1458.34 1359.82 1462.34 1367.07 1467.45 1373.09C1485.28 1394.09 1519.68 1400.74 1548.49 1393.64C1577.3 1386.54 1600.8 1367.97 1618.42 1346.84" stroke="black" stroke-miterlimit="10"/>
<path opacity="0.4" d="M1618 1095.59C1560.05 1092.02 1501.9 1091.8 1443.91 1094.96C1419.68 1096.28 1395.1 1098.23 1372.12 1105.21C1337.73 1115.65 1308.65 1136.88 1285.82 1161.65C1263.11 1186.28 1246 1214.48 1235.39 1244.73C1232.77 1252.2 1230.63 1260.55 1234.48 1267.58C1241.13 1279.78 1260.42 1280.53 1275.81 1278.96C1326.03 1273.77 1375.25 1262.82 1422.19 1246.4C1450.97 1236.33 1482.21 1223.98 1511.69 1232.36C1518.81 1234.38 1525.51 1237.55 1532.87 1238.7C1553.29 1241.89 1571.99 1229.01 1587.53 1216.99C1596.86 1209.76 1606.84 1201.43 1607.84 1190.58" stroke="black" stroke-miterlimit="10"/>
</g>
</g>
</g>
<defs>
<clipPath id="clip0_175_173">
<rect width="1440" height="1963" fill="white"/>
</clipPath>
<clipPath id="clip1_175_173">
<rect width="885" height="911" fill="white" transform="translate(-101 733)"/>
</clipPath>
<clipPath id="clip2_175_173">
<rect width="714" height="779" fill="white" transform="translate(905 746)"/>
</clipPath>
</defs>
</svg>
