<svg width="1238" height="1653" viewBox="0 0 1238 1653" fill="none" xmlns="http://www.w3.org/2000/svg">
<g clip-path="url(#clip0_175_2)">
<rect width="1238" height="1653" fill="#0F1013" fill-opacity="0.85"/>
<path d="M41.8203 183L0.025703 262.453L-41.8059 183L-73 242.28L-31.1758 321.776L-73 401.201L-41.7837 460.524L-28.4497 435.184L0.0479289 381.042L41.8203 460.594L73.0736 401.201L46.7464 351.184L31.242 321.72L51.3393 283.527L73.0736 242.238L41.8203 183Z" stroke="#BA0C2F" stroke-width="24"/>
<path d="M1279.82 183L1238.03 262.453L1196.19 183L1165 242.28L1206.82 321.776L1165 401.201L1196.22 460.524L1209.55 435.184L1238.05 381.042L1279.82 460.594L1311.07 401.201L1284.75 351.184L1269.24 321.72L1289.34 283.527L1311.07 242.238L1279.82 183Z" stroke="#BA0C2F" stroke-width="24"/>
<g opacity="0.42">
<path opacity="0.42" d="M575.91 1124.71C527.631 1101.66 481.114 1074.3 436.819 1042.87C398.281 1015.52 358.913 981.037 348.086 931.626C343.43 910.362 344.472 887.649 337.568 867.146C321.857 820.434 270.522 799.115 251.636 753.87C245.123 738.402 241.997 719.457 229.103 710.255C220.62 704.188 209.956 703.952 199.976 702.195C181.594 698.953 164.32 689.988 145.954 686.51C109.794 679.682 70.8001 696.418 48.1203 728.513C25.4405 760.608 20.0514 806.704 34.558 844.197C37.2444 851.116 40.5821 857.926 41.2984 865.425C42.7475 880.458 33.1578 894.242 22.347 903.262C-2.07483 923.53 -34.1652 928.094 -64.6437 928.619C-79.8666 928.909 -95.399 928.311 -109.759 922.642C-131.462 914.075 -148.232 894.894 -167.851 881.455C-188.328 867.491 -211.779 859.845 -235.792 859.303C-242.484 859.158 -249.436 859.647 -255.33 863.052C-261.224 866.457 -265.978 872.797 -269.869 879.154C-310.051 944.776 -298.833 1042.78 -245.284 1095.11C-237.29 1102.9 -228.107 1110.43 -224.737 1121.64C-222.881 1127.86 -223.109 1134.56 -223.239 1141.1C-225.703 1221.64 -231.309 1301.97 -240.058 1382.1C-241.784 1397.84 -243.428 1414.7 -236.574 1428.7C-232.644 1436.21 -227.035 1442.45 -220.292 1446.82C-198.036 1462.01 -169.593 1461.31 -144.34 1453.86C-119.088 1446.42 -95.6595 1432.85 -70.9771 1423.34C-11.8436 1400.58 55.5282 1400.45 107.107 1361.04C136.251 1338.78 157.335 1306.05 182.245 1278.15C190.891 1268.48 200.285 1259.17 211.665 1254.12C223.046 1249.07 235.925 1248.56 248.347 1248.4C286.337 1247.95 324.277 1249.4 362.169 1252.74C378.613 1254.19 395.79 1256.36 409.564 1266.44C436.103 1286 440.222 1326.59 454.517 1358.23C478.483 1411.26 538.772 1440.12 589.863 1423" stroke="#828282" stroke-miterlimit="10"/>
<path opacity="0.42" d="M185.729 823.839C155.463 829.635 132.522 856.876 114.092 884.28C95.6615 911.684 78.5174 941.841 51.7673 958.541C20.4584 978.175 -17.656 975.748 -53.5725 977.233C-89.4889 978.718 -129.427 987.376 -150.023 1020.14C-163.569 1041.68 -165.815 1069.28 -167.639 1095.49C-171.677 1153.8 -175.72 1212.11 -179.768 1270.42C-180.68 1283.55 -181.543 1297.01 -178.238 1309.63C-174.933 1322.26 -166.467 1334.09 -154.874 1336.8C-142.957 1339.54 -131.218 1332.33 -120.781 1325.39L-8.26174 1250.77C25.4893 1228.33 60.2009 1205.49 98.9015 1197.73C127.687 1191.96 158.198 1194.64 185.192 1182.14C193.935 1178.08 202.336 1172.45 211.747 1171.27C221.157 1170.09 230.535 1173.75 239.832 1176.02C261.756 1181.34 284.6 1179.46 305.576 1170.58C317.526 1165.49 329.558 1158.01 342.274 1159.72C353.557 1161.24 362.918 1169.71 372.882 1175.8C389.581 1185.89 408.813 1189.53 427.571 1186.16C430.355 1185.65 433.318 1184.86 435.191 1182.54C438.447 1178.5 436.819 1172.18 434.637 1167.36C419.251 1133.62 384.165 1117.04 363.179 1087.28C341.15 1056.11 335.81 1012.3 310.281 984.623C300.512 974.027 288.122 966.257 280.193 953.832C274.202 944.504 271.222 933.292 267.754 922.497C255.657 884.896 231.415 815.09 185.729 823.839Z" stroke="#828282" stroke-miterlimit="10"/>
<path opacity="0.42" d="M9.17557 1033.94C-27.1642 1063.32 -55.5261 1103.35 -79.7038 1145.44C-92.6148 1167.9 -104.923 1193.89 -99.9251 1219.96C-67.6882 1234.74 -30.4856 1221.53 -0.348982 1202.03C29.7876 1182.52 56.961 1156.75 89.7189 1143.42C138.823 1123.49 194.749 1134.36 243.691 1113.93C249.177 1111.63 254.681 1108.87 258.849 1104.29C265.361 1097.05 267.771 1086.31 268.227 1076.04C269.855 1038.83 249.047 1002.41 219.22 985.474C186.023 966.674 153.981 975.331 120.556 986.326C80.4874 999.53 44.0826 1005.72 9.17557 1033.94Z" stroke="#828282" stroke-miterlimit="10"/>
<path opacity="0.42" d="M472.833 1253.23C472.833 1263.59 472.833 1274.06 474.754 1284.22C479.508 1309.09 495.611 1329.72 514.35 1344.28C523.777 1351.53 537.242 1357.47 546.001 1349.19C551.439 1344.05 552.709 1335.35 552.904 1327.46C553.311 1311.68 550.983 1295.99 548.655 1280.36L537.812 1207.91C534.034 1182.68 519.902 1136.28 487.454 1150.82C460.671 1162.85 472.866 1227.09 472.833 1253.23Z" stroke="#828282" stroke-miterlimit="10"/>
</g>
<g opacity="0.42">
<g opacity="0.42">
<path opacity="0.42" d="M15.5366 -67.0001C15.5366 -67.0001 79.4287 50.9365 237.093 30.0059C413.965 6.48767 489.981 142.747 446.166 235.824C402.351 328.902 207.743 348.575 234.933 499.312C262.122 650.048 25.5501 718.256 25.5501 718.256" stroke="white" stroke-miterlimit="10"/>
<path opacity="0.42" d="M-32 69.333C-32 69.333 102.817 120.465 236.953 102.101C371.09 83.7372 386.745 166.297 371.05 199.107C338.508 267.284 164.508 280.4 153.234 390.479C144.771 473.238 212.085 584.533 59.3516 643.575" stroke="white" stroke-miterlimit="10"/>
<path opacity="0.42" d="M28.0207 124.394C28.0207 124.394 165.808 105.998 141.22 187.322C113.02 280.557 46.7672 279.08 109.379 397.069C131.637 439.024 138.179 608.093 15.4963 574.037" stroke="white" stroke-miterlimit="10"/>
<path opacity="0.42" d="M261.522 218.771C295.742 218.771 323.483 202.922 323.483 183.373C323.483 163.823 295.742 147.975 261.522 147.975C227.301 147.975 199.56 163.823 199.56 183.373C199.56 202.922 227.301 218.771 261.522 218.771Z" stroke="white" stroke-miterlimit="10"/>
</g>
</g>
<g opacity="0.4">
<path opacity="0.4" d="M1348.02 576.307C1281.41 545.152 1229.9 481.649 1162.58 452.542C1106.75 428.338 1037.33 432.586 993.975 478.67C958.579 516.289 946.771 573.037 936.622 626.364C925.651 684.121 914.657 741.884 903.64 799.651C900.65 815.359 897.523 831.433 889.775 844.955C880.175 861.641 864.691 872.673 849.839 883.522C801.4 918.94 754.415 958.942 720.665 1011.41C686.914 1063.88 667.645 1130.72 679.522 1193.88C684.898 1222.3 696.294 1248.89 709.501 1273.95C719.046 1291.7 730.018 1309.58 746.475 1319.25C760.189 1327.29 776.015 1328.77 791.43 1329.72C857.08 1333.63 922.912 1330.96 988.133 1321.74C1029.65 1315.94 1072.63 1307.76 1112.62 1321.44C1133.83 1328.71 1153.21 1341.87 1174.69 1348.07C1188.14 1351.95 1202.53 1353.16 1214.57 1360.88C1225.16 1367.67 1232.99 1378.98 1243.68 1385.58C1260.42 1395.9 1281.73 1392.84 1298.72 1383.06C1315.71 1373.28 1329.3 1357.65 1342.6 1342.31" stroke="#010000" stroke-miterlimit="10"/>
<path opacity="0.4" d="M1355.39 726.094C1290.64 682.651 1218.34 655.046 1143.28 645.112C1129.57 643.309 1114.81 642.27 1102.48 649.344C1094.25 654.081 1087.82 662.042 1081.91 670.079C1037.45 731.03 1011.56 805.747 986.364 879.105C895.85 934.464 832.545 1041.5 822.506 1155.96C821.711 1164.93 821.3 1174.29 824.591 1182.61C831.544 1200.04 851.265 1204.95 868.216 1207.67C938.337 1218.83 1010.36 1229.94 1079.41 1212.25C1113.06 1203.62 1145.26 1188.34 1179.42 1183.43C1186.55 1182.41 1194.19 1181.9 1200.51 1185.77C1207.77 1190.14 1211.62 1199.03 1216.53 1206.41C1233.69 1232.17 1266.79 1240.33 1294.51 1231.62C1322.22 1222.91 1344.84 1200.13 1361.79 1174.22" stroke="#090000" stroke-miterlimit="10"/>
<path opacity="0.4" d="M1361.39 866.011C1305.63 861.626 1249.68 861.365 1193.89 865.232C1170.57 866.851 1146.92 869.25 1124.81 877.807C1091.72 890.611 1063.74 916.663 1041.77 947.039C1019.92 977.263 1003.46 1011.85 993.248 1048.95C990.725 1058.12 988.668 1068.36 992.371 1076.99C998.775 1091.95 1017.33 1092.87 1032.14 1090.94C1080.46 1084.58 1127.82 1071.15 1172.99 1051C1200.68 1038.66 1230.74 1023.5 1259.1 1033.78C1265.96 1036.26 1272.4 1040.15 1279.48 1041.56C1299.13 1045.47 1317.12 1029.67 1332.07 1014.93C1341.05 1006.06 1350.65 995.843 1351.61 982.534" stroke="black" stroke-miterlimit="10"/>
</g>
</g>
<defs>
<clipPath id="clip0_175_2">
<rect width="1238" height="1653" fill="white"/>
</clipPath>
</defs>
</svg>
